<?xml version="1.0" encoding="UTF-8" standalone="no"?>
<!-- Created with Inkscape (http://www.inkscape.org/) -->
<svg xmlns:dc="http://purl.org/dc/elements/1.1/" xmlns:cc="http://creativecommons.org/ns#" xmlns:rdf="http://www.w3.org/1999/02/22-rdf-syntax-ns#" xmlns:svg="http://www.w3.org/2000/svg" xmlns="http://www.w3.org/2000/svg" xmlns:sodipodi="http://sodipodi.sourceforge.net/DTD/sodipodi-0.dtd" xmlns:inkscape="http://www.inkscape.org/namespaces/inkscape" width="32" height="32" id="svg2" sodipodi:version="0.32" inkscape:version="0.46" version="1.0" sodipodi:docname="funny_stop.svg" inkscape:output_extension="org.inkscape.output.svg.inkscape" inkscape:export-filename="/home/milo/Desktop/funny_stop.png" inkscape:export-xdpi="90" inkscape:export-ydpi="90">
  <defs id="defs4">
    <inkscape:perspective sodipodi:type="inkscape:persp3d" inkscape:vp_x="0 : 526.18109 : 1" inkscape:vp_y="0 : 1000 : 0" inkscape:vp_z="744.09448 : 526.18109 : 1" inkscape:persp3d-origin="372.04724 : 350.78739 : 1" id="perspective10"/>
    <filter inkscape:collect="always" id="filter3314" x="-0.18473622" width="1.3694724" y="-0.080220353" height="1.1604407">
      <feGaussianBlur inkscape:collect="always" stdDeviation="0.98787905" id="feGaussianBlur3316"/>
    </filter>
  </defs>
  <sodipodi:namedview id="base" pagecolor="#ffffff" bordercolor="#666666" borderopacity="1.0" gridtolerance="10000" guidetolerance="10" objecttolerance="10" inkscape:pageopacity="0.0" inkscape:pageshadow="2" inkscape:zoom="14.375" inkscape:cx="19.144664" inkscape:cy="10.889667" inkscape:document-units="px" inkscape:current-layer="layer1" showgrid="false" inkscape:window-width="1280" inkscape:window-height="992" inkscape:window-x="1440" inkscape:window-y="0"/>
  <g inkscape:label="Layer 1" inkscape:groupmode="layer" id="layer1">
    <path style="fill:#a29b94;fill-opacity:1;stroke:none;stroke-width:1;stroke-linecap:round;stroke-linejoin:round;stroke-miterlimit:4;stroke-opacity:1;filter:url(#filter3314)" d="M -7.5625,8.5625 C -8.0263008,8.6626811 -8.4063474,9.0341697 -8.5,9.53125 L -10.65625,20.0625 C -10.396974,20.328808 -8.6940143,20.738699 -6.65625,21.125 C -8.6480664,26.930864 -10.854617,33.504412 -9.5,38.03125 C -8.847902,38.20338 -7.57838,38.027098 -7.40625,37.375 C -8.5735041,31.277489 -6.4020612,26.424994 -4.40625,21.53125 C -2.3923327,21.853351 -0.38146916,22.101879 0.6875,22.125 L 2.15625,12.40625 C 2.28112,11.743476 1.850274,11.12487 1.1875,11 L -7.0625,8.5625 C -7.2281935,8.5312825 -7.4078997,8.5291063 -7.5625,8.5625 z" id="path3241" transform="matrix(0.3435391,0.830556,-0.5123189,0.5569352,35.269604,16.425224)"/>
    <path style="fill:#a29b94;fill-opacity:1;stroke:#000000;stroke-width:1;stroke-linecap:round;stroke-linejoin:round;stroke-miterlimit:4;stroke-opacity:1" d="M 18.856131,6.8112288 C 19.50823,6.9833583 19.894632,7.6469075 19.722502,8.2990069 C 17.887436,15.534526 12.993341,21.607689 14.631646,30.165879 C 14.459516,30.817978 13.169879,30.995684 12.517781,30.823554 C 10.637844,24.541206 15.646248,14.336304 17.368352,7.6775999 C 17.540482,7.0255005 18.204032,6.6390991 18.856131,6.8112288 z" id="rect2447" sodipodi:nodetypes="cccccc"/>
    <path style="fill:#ffffff;fill-opacity:1;stroke:#000000;stroke-width:0.99999982;stroke-linecap:round;stroke-linejoin:round;stroke-miterlimit:4;stroke-opacity:1" d="M 14.957169,1.3562097 L 23.218204,3.7958042 C 23.880978,3.9206741 24.31402,4.5547702 24.18915,5.2175445 L 22.708042,14.925015 C 20.083005,14.868236 11.954512,13.481416 11.358667,12.86941 L 13.535428,2.3271561 C 13.660298,1.6643818 14.294395,1.2313398 14.957169,1.3562097 z" id="rect3224" sodipodi:nodetypes="ccccccc"/>
    <rect style="opacity:1;fill:#333333;fill-opacity:1;stroke:#000000;stroke-width:0.24999991;stroke-linecap:round;stroke-linejoin:round;stroke-miterlimit:4;stroke-dasharray:none;stroke-opacity:1" id="rect3165" width="1.5652167" height="2.7304349" x="-17.819233" y="5.8776374" ry="0.78260833" transform="matrix(-0.9827107,-0.1851475,-0.1851475,0.9827107,0,0)"/>
    <rect style="opacity:1;fill:#333333;fill-opacity:1;stroke:#000000;stroke-width:0.24999991;stroke-linecap:round;stroke-linejoin:round;stroke-miterlimit:4;stroke-dasharray:none;stroke-opacity:1" id="rect3167" width="1.5652167" height="2.7304349" x="-22.593147" y="5.8776374" ry="0.78260833" transform="matrix(-0.9827107,-0.1851475,-0.1851475,0.9827107,0,0)"/>
    <path style="fill:#ff7c05;fill-opacity:1;stroke:#000000;stroke-width:0.25;stroke-linecap:round;stroke-linejoin:round;stroke-miterlimit:4;stroke-dasharray:none;stroke-opacity:1" d="M 16.834635,4.2454878 L 20.657517,4.9303421 C 21.75713,5.1375146 22.293044,6.0312732 22.085872,7.1308862 L 21.477057,10.738029 C 21.269885,11.837642 20.446967,11.997564 19.347354,11.790392 L 15.821452,11.126094 C 14.721839,10.918922 14.123507,10.544321 14.330679,9.4447083 L 14.963024,5.8066043 C 15.170196,4.7069912 15.735022,4.0383154 16.834635,4.2454878 z" id="rect2383" sodipodi:nodetypes="ccccccccc"/>
    <path style="fill:#ffffff;fill-opacity:1;stroke:#000000;stroke-width:0.25;stroke-linecap:round;stroke-linejoin:round;stroke-miterlimit:4;stroke-opacity:1" d="M 16.520512,4.9878243 C 17.818235,4.5590847 20.372298,5.1442663 20.964074,5.8250126 C 21.584345,6.4226518 22.087151,8.9864493 20.923703,9.2329803 C 19.070466,9.5631473 17.246318,8.7989243 15.686789,7.9100723 C 14.576854,7.2546299 15.586784,5.3495151 16.520512,4.9878243 z" id="rect3169" sodipodi:nodetypes="ccccc"/>
    <path sodipodi:type="arc" style="opacity:1;fill:#ffffff;fill-opacity:1;stroke:#000000;stroke-width:1;stroke-linecap:round;stroke-linejoin:round;stroke-miterlimit:4;stroke-dasharray:none;stroke-opacity:1" id="path3172" sodipodi:cx="5.5999999" sodipodi:cy="22.608696" sodipodi:rx="2.2608695" sodipodi:ry="2.2956522" d="M 7.8608694,22.608696 A 2.2608695,2.2956522 0 1 1 3.3391304,22.608696 A 2.2608695,2.2956522 0 1 1 7.8608694,22.608696 z" transform="matrix(0.2456777,4.6286859e-2,-4.6286859e-2,0.2456777,15.597617,3.5928343)"/>
    <path sodipodi:type="arc" style="opacity:1;fill:#ffffff;fill-opacity:1;stroke:#000000;stroke-width:1;stroke-linecap:round;stroke-linejoin:round;stroke-miterlimit:4;stroke-dasharray:none;stroke-opacity:1" id="path3174" sodipodi:cx="22.504349" sodipodi:cy="23.443478" sodipodi:rx="2.4695652" sodipodi:ry="2.5739131" d="M 24.973914,23.443478 A 2.4695652,2.5739131 0 1 1 20.034784,23.443478 A 2.4695652,2.5739131 0 1 1 24.973914,23.443478 z" transform="matrix(0.2456777,4.6286859e-2,-4.6286859e-2,0.2456777,15.000437,3.5688084)"/>
  </g>
  <metadata>
    <rdf:RDF>
      <cc:Work>
        <dc:format>image/svg+xml</dc:format>
        <dc:type rdf:resource="http://purl.org/dc/dcmitype/StillImage"/>
        <cc:license rdf:resource="http://creativecommons.org/licenses/publicdomain/"/>
        <dc:publisher>
          <cc:Agent rdf:about="http://openclipart.org/">
            <dc:title>Open Clip Art Library</dc:title>
          </cc:Agent>
        </dc:publisher>
        <dc:title>Funny Bus stop</dc:title>
        <dc:date>2009-03-19T18:03:15</dc:date>
        <dc:description/>
        <dc:source>http://openclipart.org/detail/22592/funny-bus-stop-by-milovanderlinden</dc:source>
        <dc:creator>
          <cc:Agent>
            <dc:title>milovanderlinden</dc:title>
          </cc:Agent>
        </dc:creator>
        <dc:subject>
          <rdf:Bag>
            <rdf:li>cartoon bus stop</rdf:li>
            <rdf:li>cartoon bus stop</rdf:li>
            <rdf:li>clip art</rdf:li>
            <rdf:li>clipart</rdf:li>
            <rdf:li>image</rdf:li>
            <rdf:li>media</rdf:li>
            <rdf:li>png</rdf:li>
            <rdf:li>public domain</rdf:li>
            <rdf:li>svg</rdf:li>
          </rdf:Bag>
        </dc:subject>
      </cc:Work>
      <cc:License rdf:about="http://creativecommons.org/licenses/publicdomain/">
        <cc:permits rdf:resource="http://creativecommons.org/ns#Reproduction"/>
        <cc:permits rdf:resource="http://creativecommons.org/ns#Distribution"/>
        <cc:permits rdf:resource="http://creativecommons.org/ns#DerivativeWorks"/>
      </cc:License>
    </rdf:RDF>
  </metadata>
</svg>
